<svg xmlns="http://www.w3.org/2000/svg" viewBox="0 0 1080 1080">
	<defs>
		<style>
			.cls-1{fill:#fff;}.cls-2{fill:#16056b;}
		</style>
	</defs>
	<title>
		Asset 5
	</title>
	<g id="Layer_2" data-name="Layer 2">
		<g id="Layer_1-2" data-name="Layer 1">
			<rect class="cls-1" width="1080" height="1080" />
			<path class="cls-2" d="M479.86,480.3s0,0,0,0a3.67,3.67,0,0,1,0,.46,1.54,1.54,0,0,1-2.37,1.1l-.3.23a76.47,76.47,0,0,0-32.71-.39c-24.38,5.19-42.11,22.15-52.7,50.39a109.82,109.82,0,0,1-13.85,26.29c-10.6,14.56-22.65,22-32.26,25.77q-1.22.48-2.43.9c-14.91,5.17-29.5,4.19-38.13.82v29.59a1.45,1.45,0,0,1-2.9,0V584q-16-26.61-31.94-53.23-.3,16.34-.62,32.67a1.41,1.41,0,0,1-2.82,0V525.11a1.42,1.42,0,0,1,2.11-1.22c11.48,5.6,25.8,6,37.89,2.39,19.58-5.78,33.05-22.21,41.41-40.11,5-10.76,7.82-22.23,14.46-32.24a68.54,68.54,0,0,1,18-18.42c17.54-12.19,41.88-16.61,62.89-13a1.43,1.43,0,0,1,1,1.73c-1.46,8-1.5,17.15,3.31,24a16,16,0,0,0,11.63,7c2.14.26,4.22,1.63,6.32,2.26C475.94,460.56,480.63,470.45,479.86,480.3Z" />
			<path class="cls-2" d="M505.19,544.08v44.6H469.3V546.45c0-4.28-1-7.7-3.08-10.19a9.68,9.68,0,0,0-8-3.62A11.55,11.55,0,0,0,449.88,552a10.25,10.25,0,0,0,7.71,3.09l9.49,0V589.6l-1.2.21a44.62,44.62,0,0,1-7.67.72c-13.58,0-25-4.53-34.11-13.48s-13.66-20.3-13.66-33.76a49.2,49.2,0,0,1,1.14-10.78,45.32,45.32,0,0,1,12.65-22.73A45.92,45.92,0,0,1,457.76,496c.42,0,.84,0,1.26,0,14,.23,25.25,4.57,33.45,12.88C500.91,517.52,505.19,529.33,505.19,544.08Z" />
			<polygon class="cls-2" points="606.27 551.2 606.27 588.68 517.66 588.68 544.5 535.1 517.5 535.1 517.5 497.79 603.12 497.79 576.11 551.2 606.27 551.2" />
			<path class="cls-2" d="M655.71,475.86a16.37,16.37,0,0,1-5.09,12.33,19.59,19.59,0,0,1-25.74,0,17.08,17.08,0,0,1,.26-24.54,18.06,18.06,0,0,1,25.22,0A16.44,16.44,0,0,1,655.71,475.86Z" />
			<rect class="cls-2" x="619.72" y="497.79" width="35.91" height="90.88" />
			<path class="cls-2" d="M749.16,540.81v47.87H713.27V537.55c0-5.46-2.59-6.15-4.83-6.15s-4.73.69-4.73,6.15v51.13H667.8V538.17c0-11.82,4-21.91,11.8-30a38.84,38.84,0,0,1,28.92-12.22c13,0,23.55,4.77,31.4,14.2C746.05,517.49,749.16,527.81,749.16,540.81Z" />
			<path class="cls-2" d="M855.49,539.61a47.27,47.27,0,0,0-46.78-43.67c-13.63,0-25.25,4.57-34.55,13.61a45.11,45.11,0,0,0-14,33.55,45.61,45.61,0,0,0,14,33.47,48.09,48.09,0,0,0,64.66,2.65A48.19,48.19,0,0,0,855.49,539.61ZM807.82,555a10.54,10.54,0,0,1-7.92-3.44,12.21,12.21,0,0,1,0-16.74,10.55,10.55,0,0,1,8-3.4,10.68,10.68,0,0,1,8.06,3.4,12.21,12.21,0,0,1,0,16.74A10.66,10.66,0,0,1,807.82,555Z" />
			<path class="cls-2" d="M629,619.2c-5.88.15-11.77.35-17.64.68-2.94.15-5.87.29-8.81.48s-5.87.35-8.79.58q-8.79.63-17.57,1.36c-5.84.53-11.68,1-17.51,1.69s-11.67,1.17-17.48,1.92l-8.74,1-8.7,1.19-8.71,1.2-8.67,1.29-8.69,1.31L489,633.4l-8.65,1.46-8.62,1.65-8.62,1.59c-2.87.54-5.74,1.18-8.6,1.74-11.41,2.3-23,4.89-34.53,7.23-23.17,4.66-46.55,8.78-70.44,10.77a231.06,231.06,0,0,1-36.28.26A143.45,143.45,0,0,1,295,655.36a99.3,99.3,0,0,1-17.88-5.82A89,89,0,0,1,236,611.93a87.63,87.63,0,0,1-7.19-17.25,104.62,104.62,0,0,1,4.37-71.93A92.83,92.83,0,0,1,242.3,507a73,73,0,0,1,12.35-13.26,67.29,67.29,0,0,1,15.13-9.7,72,72,0,0,1,16.92-5.34,70.58,70.58,0,0,0-29.6,17.7,75.37,75.37,0,0,0-10.62,13.42,87.83,87.83,0,0,0-7.39,15.36,92.74,92.74,0,0,0-4.42,16.41,96.79,96.79,0,0,0-1.52,16.89,112.58,112.58,0,0,0,1.23,16.83,94.31,94.31,0,0,0,4.09,16.23,79.1,79.1,0,0,0,16.88,28.09A73.87,73.87,0,0,0,282,638.21,94.08,94.08,0,0,0,297.69,643a125.44,125.44,0,0,0,16.61,2.27,221.53,221.53,0,0,0,34.24-.42c11.51-.88,23-2.38,34.56-4.09s23-3.73,34.59-5.77,23-4.31,34.74-6.33c2.92-.51,5.83-1.07,8.75-1.54L470,625.8l8.8-1.29,8.8-1.11,8.81-1.1,8.82-1,8.82-.92c2.94-.28,5.9-.48,8.84-.71l8.85-.68,8.85-.53c5.88-.39,11.8-.63,17.7-.86,11.81-.32,23.61-.55,35.42-.29S617.26,618,629,619.2Z" />
		</g>
	</g>
</svg>
