<svg id="Layer_1" data-name="Layer 1" xmlns="http://www.w3.org/2000/svg" viewBox="0 0 390.98 107.31"><defs><style>.cls-1{fill:#fff;}</style></defs><g id="Layer_2" data-name="Layer 2"><g id="Layer_1-2" data-name="Layer 1-2"><path class="cls-1" d="M162.67,40.27h0v.21a1,1,0,0,1-1.07.61,1.32,1.32,0,0,1-.4-.11l-.19.1a64.63,64.63,0,0,0-20.26-.17c-15.1,2.34-26.09,10-32.65,22.78a46.88,46.88,0,0,1-8.58,11.88,46,46,0,0,1-20,11.65l-1.5.41C68.8,90,59.76,89.52,54.42,88v13.37c0,.36-.41.66-.9.66s-.9-.3-.9-.66V87.15q-9.91-12-19.79-24.06-.18,7.38-.38,14.77c0,.35-.39.63-.87.63s-.88-.28-.88-.63V60.53c0-.35.41-.64.9-.63A1.15,1.15,0,0,1,32,60c7.11,2.53,16,2.71,23.47,1.08A40.22,40.22,0,0,0,81.13,42.93c3.1-4.87,4.85-10,9-14.58A38.53,38.53,0,0,1,101.24,20c10.87-5.51,25.94-7.51,39-5.88.46.1.74.44.62.78-.91,3.62-.93,7.76,2.05,10.85a11,11,0,0,0,7.2,3.17A30.12,30.12,0,0,1,154,30C160.24,31.35,163.14,35.82,162.67,40.27Z" transform="translate(-4.43 -13.6)"/><path class="cls-1" d="M178.36,69.11V89.27H156.12V70.18a5.83,5.83,0,0,0-1.9-4.61,7.14,7.14,0,0,0-5-1.64c-3.95,0-7.11,2.42-7,5.3a4.63,4.63,0,0,0,1.88,3.46,7.76,7.76,0,0,0,4.78,1.39h5.88v15.6l-.74.1a37.68,37.68,0,0,1-4.76.32c-8.41,0-15.48-2-21.13-6.09s-8.46-9.18-8.46-15.26a16.55,16.55,0,0,1,.71-4.87,19.89,19.89,0,0,1,7.84-10.28c5.45-4.07,13-6.32,20.77-6.23h.78c8.67.11,15.64,2.07,20.72,5.82A18.93,18.93,0,0,1,178.36,69.11Z" transform="translate(-4.43 -13.6)"/><polygon class="cls-1" points="236.54 58.72 236.54 75.67 181.65 75.67 198.28 51.45 181.55 51.45 181.55 34.58 234.59 34.58 217.86 58.72 236.54 58.72"/><path class="cls-1" d="M271.6,38.27a6.59,6.59,0,0,1-3.16,5.57,15.64,15.64,0,0,1-15.94,0c-4.16-3-4.19-7.89-.09-10.92l.25-.17a14.32,14.32,0,0,1,15.62,0A6.73,6.73,0,0,1,271.6,38.27Z" transform="translate(-4.43 -13.6)"/><rect class="cls-1" x="244.87" y="34.58" width="22.24" height="41.08"/><path class="cls-1" d="M329.48,67.63V89.27H307.25V66.15c0-2.46-1.6-2.78-3-2.78s-2.93.32-2.93,2.78V89.27H279.08V66.43c0-5.34,2.48-9.9,7.31-13.56,4.64-3.6,11.15-5.6,17.92-5.52,8.05,0,14.59,2.16,19.45,6.42C327.56,57.09,329.48,61.75,329.48,67.63Z" transform="translate(-4.43 -13.6)"/><path class="cls-1" d="M395.35,67.08c-1.16-11.07-13.76-19.65-29-19.74-8.44,0-15.64,2.07-21.4,6.16-5.68,3.94-8.83,9.44-8.67,15.16-.1,5.7,3,11.18,8.67,15.13,10.93,7.88,28.27,8.4,40,1.2C392.12,80.53,396,73.9,395.35,67.08Zm-29.53,7a7.85,7.85,0,0,1-4.91-1.55c-2.74-2.13-2.74-5.44,0-7.57a7.89,7.89,0,0,1,5-1.54,8,8,0,0,1,5,1.54c2.74,2.13,2.74,5.44,0,7.57A8,8,0,0,1,365.82,74Z" transform="translate(-4.43 -13.6)"/><path class="cls-1" d="M255.05,103.06c-3.64.07-7.29.16-10.93.31-1.82.07-3.63.13-5.45.22s-3.64.16-5.45.26q-5.44.29-10.88.61c-3.62.24-7.24.46-10.85.77s-7.23.53-10.83.87l-5.41.45-5.39.54-5.4.54-5.37.58-5.38.59-5.38.68-5.36.66-5.34.75-5.34.72c-1.78.24-3.56.53-5.33.78-7.07,1-14.25,2.21-21.39,3.27-14.35,2.11-28.83,4-43.63,4.87a196,196,0,0,1-22.48.12c-3.8-.24-7.58-.65-11.31-1.24a79,79,0,0,1-11.07-2.63c-10.77-3.53-19.7-9.49-25.47-17A34.91,34.91,0,0,1,7.15,92C2.75,81.25,3.71,69.73,9.86,59.46a41.65,41.65,0,0,1,5.65-7.12,40.4,40.4,0,0,1,7.65-6A45.26,45.26,0,0,1,32.53,42,57.48,57.48,0,0,1,43,39.55a49,49,0,0,0-18.33,8,38.73,38.73,0,0,0-6.58,6.07,36.2,36.2,0,0,0-4.58,6.94A33.58,33.58,0,0,0,10.78,68a32.39,32.39,0,0,0-.94,7.63,37.56,37.56,0,0,0,.76,7.61,34,34,0,0,0,2.54,7.34,35.8,35.8,0,0,0,10.45,12.7,48.83,48.83,0,0,0,16.51,8.4,75.68,75.68,0,0,0,9.72,2.16c3.39.51,6.83.85,10.29,1a189.94,189.94,0,0,0,21.21-.19c7.13-.4,14.25-1.08,21.41-1.85s14.24-1.69,21.42-2.61,14.25-2,21.52-2.86c1.81-.23,3.61-.48,5.42-.7l5.47-.59,5.45-.59,5.45-.5,5.46-.5,5.46-.45,5.46-.41c1.83-.13,3.66-.22,5.48-.32l5.48-.31,5.48-.24c3.65-.18,7.31-.29,11-.39,7.31-.15,14.62-.25,21.94-.13S247.78,102.52,255.05,103.06Z" transform="translate(-4.43 -13.6)"/></g></g></svg>