<svg height="512" viewBox="0 0 176 176" width="512" xmlns="http://www.w3.org/2000/svg" xmlns:xlink="http://www.w3.org/1999/xlink"><linearGradient id="linear-gradient" gradientUnits="userSpaceOnUse" x1="13.1" x2="160" y1="162.9" y2="16"><stop offset="0" stop-color="#e09b3d"/><stop offset=".3" stop-color="#c74c4d"/><stop offset=".6" stop-color="#c21975"/><stop offset="1" stop-color="#7024c4"/></linearGradient><g id="Layer_2" data-name="Layer 2"><g id="_07.instagram" data-name="07.instagram"><path id="background" d="m144.52 173a532.59 532.59 0 0 1 -113 0 32.07 32.07 0 0 1 -28.52-28.48 532.59 532.59 0 0 1 0-113 32.07 32.07 0 0 1 28.48-28.52 532.59 532.59 0 0 1 113 0 32.07 32.07 0 0 1 28.52 28.48 532.59 532.59 0 0 1 0 113 32.07 32.07 0 0 1 -28.48 28.52z" fill="url(#linear-gradient)"/><g id="icon"><g id="icon-2" fill="#fff" data-name="icon"><path d="m110.23 33h-44.46a32.81 32.81 0 0 0 -32.77 32.77v44.46a32.81 32.81 0 0 0 32.77 32.77h44.46a32.81 32.81 0 0 0 32.77-32.77v-44.46a32.81 32.81 0 0 0 -32.77-32.77zm21.7 77.23a21.69 21.69 0 0 1 -21.7 21.7h-44.46a21.69 21.69 0 0 1 -21.7-21.7v-44.46a21.7 21.7 0 0 1 21.7-21.7h44.46a21.7 21.7 0 0 1 21.7 21.7z"/><path d="m88 59.55a28.45 28.45 0 1 0 28.45 28.45 28.49 28.49 0 0 0 -28.45-28.45zm0 45.84a17.39 17.39 0 1 1 17.39-17.39 17.4 17.4 0 0 1 -17.39 17.39z"/><circle cx="116.61" cy="59.55" r="7.03"/></g></g></g></g></svg>